<?xml version="1.0" encoding="UTF-8" standalone="no"?>
<svg width="21px" height="18px" viewBox="0 0 21 18" version="1.1" xmlns="http://www.w3.org/2000/svg" xmlns:xlink="http://www.w3.org/1999/xlink" xmlns:sketch="http://www.bohemiancoding.com/sketch/ns">
    <!-- Generator: Sketch 3.3.3 (12081) - http://www.bohemiancoding.com/sketch -->
    <title>icon_reset</title>
    <desc>Created with Sketch.</desc>
    <defs></defs>
    <g id="Page-1" stroke="none" stroke-width="1" fill="none" fill-rule="evenodd" sketch:type="MSPage">
        <g id="icon_reset" sketch:type="MSArtboardGroup" fill="#154273">
            <g sketch:type="MSLayerGroup" id="Shape">
                <path d="M12.5803,14.113 C11.5334,14.8813 10.2426,15.3361 8.844,15.3361 C5.3459,15.3361 2.5081,12.498 2.5081,9 C2.5081,5.4999 5.3459,2.6639 8.844,2.6639 C12.3441,2.6639 15.1801,5.4999 15.1801,9 L11.868,9 L16.236,13.368 L20.6041,9 L17.292,9 C17.292,4.3357 13.5104,0.552 8.844,0.552 C4.1796,0.552 0.3959,4.3357 0.3959,9 C0.3959,13.6643 4.1796,17.448 8.844,17.448 C10.6906,17.448 12.3979,16.8547 13.7874,15.849 C13.8232,15.8607 12.597,14.1008 12.5803,14.113 L12.5803,14.113 Z" sketch:type="MSShapeGroup"></path>
            </g>
        </g>
    </g>
</svg>