<?xml version="1.0" encoding="UTF-8" standalone="no"?>
<svg width="38px" height="19px" viewBox="0 0 38 19" version="1.1" xmlns="http://www.w3.org/2000/svg" xmlns:xlink="http://www.w3.org/1999/xlink" xmlns:sketch="http://www.bohemiancoding.com/sketch/ns">
    <!-- Generator: Sketch 3.3.3 (12081) - http://www.bohemiancoding.com/sketch -->
    <title>icon_checkbox</title>
    <desc>Created with Sketch.</desc>
    <defs></defs>
    <g id="Page-1" stroke="none" stroke-width="1" fill="none" fill-rule="evenodd" sketch:type="MSPage">
        <g id="icon_checkbox" sketch:type="MSArtboardGroup">
            <path d="M1.07415636,4.29662545 C1.07415636,2.51683335 2.51686182,1.07415636 4.29662545,1.07415636 L14.7033745,1.07415636 C16.4831382,1.07415636 17.9258436,2.51683335 17.9258436,4.29662545 L17.9258436,14.7033745 C17.9258436,16.4831667 16.4831382,17.9258436 14.7033745,17.9258436 L4.29662545,17.9258436 C2.51686182,17.9258436 1.07415636,16.4831667 1.07415636,14.7033745 L1.07415636,4.29662545 L1.07415636,4.29662545 Z M0,4.29662545 L0,14.7033745 C0,17.0764116 1.92362639,19 4.29662545,19 L14.7033745,19 C17.0763736,19 19,17.0764116 19,14.7033745 L19,4.29662545 C19,1.92358842 17.0763736,0 14.7033745,0 L4.29662545,0 C1.92362639,0 0,1.92358842 0,4.29662545 L0,4.29662545 Z" id="Shape" fill="#CCCCCC" sketch:type="MSShapeGroup"></path>
            <path d="M20.0741564,4.29662545 C20.0741564,2.51683335 21.5168618,1.07415636 23.2966255,1.07415636 L33.7033745,1.07415636 C35.4831382,1.07415636 36.9258436,2.51683335 36.9258436,4.29662545 L36.9258436,14.7033745 C36.9258436,16.4831667 35.4831382,17.9258436 33.7033745,17.9258436 L23.2966255,17.9258436 C21.5168618,17.9258436 20.0741564,16.4831667 20.0741564,14.7033745 L20.0741564,4.29662545 L20.0741564,4.29662545 Z M19,4.29662545 L19,14.7033745 C19,17.0764116 20.9236264,19 23.2966255,19 L33.7033745,19 C36.0763736,19 38,17.0764116 38,14.7033745 L38,4.29662545 C38,1.92358842 36.0763736,0 33.7033745,0 L23.2966255,0 C20.9236264,0 19,1.92358842 19,4.29662545 L19,4.29662545 Z" id="Shape-Copy" fill="#CCCCCC" sketch:type="MSShapeGroup"></path>
            <path d="M5.15390742,8.125 L7.95622846,11.2644688 L14.7111534,4 L17,6.36053125 L7.88454912,15 L3,10.0250208 L5.15390742,8.125 L5.15390742,8.125 Z" id="Shape" fill="#59B200" sketch:type="MSShapeGroup"></path>
        </g>
    </g>
</svg>